<svg xmlns="http://www.w3.org/2000/svg" version="1.1" xmlns:xlink="http://www.w3.org/1999/xlink" xmlns:svgjs="http://svgjs.dev/svgjs" width="1500" height="1500" viewBox="0 0 1500 1500"><g transform="matrix(1,0,0,1,-0.21332335329316265,-0.21332335329350371)"><svg viewBox="0 0 334 334" data-background-color="#ffffff" preserveAspectRatio="xMidYMid meet" height="1500" width="1500" xmlns="http://www.w3.org/2000/svg" xmlns:xlink="http://www.w3.org/1999/xlink"><g id="tight-bounds" transform="matrix(1,0,0,1,0.04749999999998522,0.04750000000001364)"><svg viewBox="0 0 333.90454557049503 333.90454557049503" height="333.90454557049503" width="333.90454557049503"><g><svg></svg></g><g><svg viewBox="0 0 333.90454557049503 333.90454557049503" height="333.90454557049503" width="333.90454557049503"><g><path d="M0 166.952c0-92.205 74.747-166.952 166.952-166.952 92.205 0 166.952 74.747 166.953 166.952 0 92.205-74.747 166.952-166.953 166.953-92.205 0-166.952-74.747-166.952-166.953zM166.952 330.215c90.168 0 163.263-73.095 163.263-163.263 0-90.168-73.095-163.263-163.263-163.263-90.168 0-163.263 73.095-163.263 163.263 0 90.168 73.095 163.263 163.263 163.263z" data-fill-palette-color="tertiary" fill="#b0bca7" stroke="transparent"></path><ellipse rx="160.27418187383762" ry="160.27418187383762" cx="166.95227278524752" cy="166.95227278524752" fill="#b0bca7" stroke="transparent" stroke-width="0" fill-opacity="1" data-fill-palette-color="tertiary"></ellipse></g><g transform="matrix(1,0,0,1,71.16673710657405,71.17305217166896)"><svg viewBox="0 0 191.57107135734694 191.55844122715712" height="191.55844122715712" width="191.57107135734694"><g><svg viewBox="0 0 213.1584412271571 213.14438785863607" height="191.55844122715712" width="191.57107135734694"><g transform="matrix(1,0,0,1,0,114.42914093160229)"><svg viewBox="0 0 213.1584412271571 98.71524692703377" height="98.71524692703377" width="213.1584412271571"><g id="textblocktransform"><svg viewBox="0 0 213.1584412271571 98.71524692703377" height="98.71524692703377" width="213.1584412271571" id="textblock"><g><svg viewBox="0 0 213.1584412271571 98.71524692703377" height="98.71524692703377" width="213.1584412271571"><g transform="matrix(1,0,0,1,0,0)"><svg width="213.1584412271571" viewBox="87.69999999999999 -35.25 166.7 74.2" height="98.71524692703377" data-palette-color="#f5f5f5"><svg></svg><svg></svg><g class="wordmark-text-0" data-fill-palette-color="quaternary" id="text-0"><path transform="translate(105.92,0)" d="M26.65 0h-22.3v-35.25h22.3v3.4h-18.25v12.25h17.25v3.4h-17.25v12.8h18.25zM42.05-4.4l8.25-19.9h4.05l-10.5 24.3h-3.8l-10.45-24.3h4.3zM78.65-13.05v1.5h-17.8c0.133 2.833 0.9 4.973 2.3 6.42 1.4 1.453 3.383 2.18 5.95 2.18v0c2.833 0 5.433-0.967 7.8-2.9v0l1.35 2.95c-1.067 1-2.433 1.79-4.1 2.37-1.667 0.587-3.367 0.88-5.1 0.88v0c-3.8 0-6.79-1.117-8.97-3.35-2.187-2.233-3.28-5.317-3.28-9.25v0c0-2.5 0.483-4.71 1.45-6.63 0.967-1.913 2.327-3.403 4.08-4.47 1.747-1.067 3.737-1.6 5.97-1.6v0c3.233 0 5.767 1.057 7.6 3.17 1.833 2.12 2.75 5.03 2.75 8.73zM68.35-21.8c-2.133 0-3.84 0.667-5.12 2-1.287 1.333-2.047 3.217-2.28 5.65v0h14.15c-0.067-2.467-0.683-4.36-1.85-5.68-1.167-1.313-2.8-1.97-4.9-1.97zM96.85-24.95c5.833 0 8.75 3.217 8.75 9.65v0 15.3h-4.05v-15.05c0-2.267-0.44-3.917-1.32-4.95-0.887-1.033-2.297-1.55-4.23-1.55v0c-2.233 0-4.017 0.683-5.35 2.05-1.333 1.367-2 3.217-2 5.55v0 13.95h-4.05v-24.35h4v4c0.8-1.5 1.917-2.643 3.35-3.43 1.433-0.78 3.067-1.17 4.9-1.17zM123.7-2.9c0.733 0 1.467-0.05 2.2-0.15v0l-0.2 3.2c-0.767 0.133-1.6 0.2-2.5 0.2v0c-2.933 0-5.14-0.767-6.62-2.3-1.487-1.533-2.23-3.667-2.23-6.4v0-12.8h-4.75v-3.2h4.75v-7.4h4.05v7.4h6.9v3.2h-6.9v12.5c0 3.833 1.767 5.75 5.3 5.75z" fill="#f5f5f5" fill-rule="nonzero" stroke="none" stroke-width="1" stroke-linecap="butt" stroke-linejoin="miter" stroke-miterlimit="10" stroke-dasharray="" stroke-dashoffset="0" font-family="none" font-weight="none" font-size="none" text-anchor="none" style="mix-blend-mode: normal" data-fill-palette-color="quaternary" opacity="1"></path><path transform="translate(83.35,38.6)" d="M4.35 0v-35.25h13.95c3.7 0 6.577 0.9 8.63 2.7 2.047 1.8 3.07 4.35 3.07 7.65v0c0 3.3-1.033 5.867-3.1 7.7-2.067 1.833-4.933 2.75-8.6 2.75v0h-9.85v14.45zM8.45-17.85h9.45c5.367 0 8.05-2.35 8.05-7.05v0c0-4.633-2.683-6.95-8.05-6.95v0h-9.45zM40.05 0h-4.05v-35.25h4.05zM57.5-24.95c3.1 0 5.41 0.79 6.93 2.37 1.513 1.587 2.27 3.997 2.27 7.23v0 15.35h-3.95v-4.15c-0.633 1.433-1.6 2.54-2.9 3.32-1.3 0.787-2.8 1.18-4.5 1.18v0c-1.567 0-3.007-0.317-4.32-0.95-1.32-0.633-2.363-1.517-3.13-2.65-0.767-1.133-1.15-2.383-1.15-3.75v0c0-1.833 0.467-3.26 1.4-4.28 0.933-1.013 2.467-1.747 4.6-2.2 2.133-0.447 5.1-0.67 8.9-0.67v0h1.1v-1.65c0-2.033-0.417-3.51-1.25-4.43-0.833-0.913-2.183-1.37-4.05-1.37v0c-2.8 0-5.583 0.867-8.35 2.6v0l-1.35-2.95c1.267-0.9 2.793-1.627 4.58-2.18 1.78-0.547 3.503-0.82 5.17-0.82zM55.9-2.85c2 0 3.643-0.677 4.93-2.03 1.28-1.347 1.92-3.087 1.92-5.22v0-1.45h-0.9c-2.933 0-5.167 0.123-6.7 0.37-1.533 0.253-2.623 0.67-3.27 1.25-0.653 0.587-0.98 1.447-0.98 2.58v0c0 1.3 0.477 2.373 1.43 3.22 0.947 0.853 2.137 1.28 3.57 1.28zM86.35-24.95c5.833 0 8.75 3.217 8.75 9.65v0 15.3h-4.05v-15.05c0-2.267-0.443-3.917-1.33-4.95-0.88-1.033-2.287-1.55-4.22-1.55v0c-2.233 0-4.017 0.683-5.35 2.05-1.333 1.367-2 3.217-2 5.55v0 13.95h-4.05v-24.35h4v4c0.8-1.5 1.917-2.643 3.35-3.43 1.433-0.78 3.067-1.17 4.9-1.17zM114.75-24.95c5.833 0 8.75 3.217 8.75 9.65v0 15.3h-4.05v-15.05c0-2.267-0.44-3.917-1.32-4.95-0.887-1.033-2.297-1.55-4.23-1.55v0c-2.233 0-4.017 0.683-5.35 2.05-1.333 1.367-2 3.217-2 5.55v0 13.95h-4.05v-24.35h4v4c0.8-1.5 1.917-2.643 3.35-3.43 1.433-0.78 3.067-1.17 4.9-1.17zM151.3-13.05v1.5h-17.8c0.133 2.833 0.9 4.973 2.3 6.42 1.4 1.453 3.383 2.18 5.95 2.18v0c2.833 0 5.433-0.967 7.8-2.9v0l1.35 2.95c-1.067 1-2.433 1.79-4.1 2.37-1.667 0.587-3.367 0.88-5.1 0.88v0c-3.8 0-6.793-1.117-8.98-3.35-2.18-2.233-3.27-5.317-3.27-9.25v0c0-2.5 0.483-4.71 1.45-6.63 0.967-1.913 2.323-3.403 4.07-4.47 1.753-1.067 3.747-1.6 5.98-1.6v0c3.233 0 5.767 1.057 7.6 3.17 1.833 2.12 2.75 5.03 2.75 8.73zM141-21.8c-2.133 0-3.84 0.667-5.12 2-1.287 1.333-2.047 3.217-2.28 5.65v0h14.15c-0.067-2.467-0.683-4.36-1.85-5.68-1.167-1.313-2.8-1.97-4.9-1.97zM170.7-24.95l0.35 3.5-2.65 0.25c-2.5 0.233-4.31 1.017-5.43 2.35-1.113 1.333-1.67 2.983-1.67 4.95v0 13.9h-4.05v-24.35h3.95v4.25c1.367-2.833 4.05-4.417 8.05-4.75v0z" fill="#f5f5f5" fill-rule="nonzero" stroke="none" stroke-width="1" stroke-linecap="butt" stroke-linejoin="miter" stroke-miterlimit="10" stroke-dasharray="" stroke-dashoffset="0" font-family="none" font-weight="none" font-size="none" text-anchor="none" style="mix-blend-mode: normal" data-fill-palette-color="quaternary" opacity="1"></path></g></svg></g></svg></g></svg></g></svg></g><g transform="matrix(1,0,0,1,62.68702614947477,0)"><svg viewBox="0 0 87.78438892820758 103.68259815240212" height="103.68259815240212" width="87.78438892820758"><g><svg xmlns="http://www.w3.org/2000/svg" xmlns:xlink="http://www.w3.org/1999/xlink" version="1.1" x="0" y="0" viewBox="8.915999999999997 2.381 72.168 85.238" enable-background="new 0 0 90 90" xml:space="preserve" height="103.68259815240212" width="87.78438892820758" class="icon-icon-0" data-fill-palette-color="quaternary" id="icon-0"><path d="M23.288 19.074c-1.502 0-2.718-1.216-2.718-2.718V5.1c0-1.502 1.216-2.719 2.718-2.719 1.501 0 2.719 1.217 2.719 2.719v11.257C26.007 17.858 24.789 19.074 23.288 19.074z" fill="#f5f5f5" data-fill-palette-color="quaternary"></path><path d="M56.504 19.074c-1.502 0-2.719-1.216-2.719-2.718V5.1c0-1.502 1.217-2.719 2.719-2.719s2.717 1.217 2.717 2.719v11.257C59.221 17.858 58.006 19.074 56.504 19.074z" fill="#f5f5f5" data-fill-palette-color="quaternary"></path><path d="M29.021 71.936h-3.163V57.277h2.336c0.13-0.647 0.288-1.281 0.463-1.908h-2.799V41.182h11.771c1.011-0.875 2.085-1.678 3.21-2.406v-13.23h13.074v8.729c0.631-0.056 1.269-0.092 1.905-0.104v-8.624h11.563v10.73c1.207 0.492 2.373 1.063 3.494 1.707v-21.24c0-3.531-2.871-6.405-6.404-6.405h-2.727v6.018c0 2.894-2.348 5.241-5.24 5.241s-5.24-2.348-5.24-5.241v-6.018H28.528v6.018c0 2.894-2.348 5.241-5.24 5.241-2.895 0-5.241-2.348-5.241-5.241v-6.018h-2.723c-3.535 0-6.408 2.874-6.408 6.405v52.279c0 3.533 2.873 6.408 6.408 6.408h15.082C29.872 74.303 29.41 73.137 29.021 71.936zM25.857 25.545h13.075v13.731H25.857V25.545zM23.951 71.936h-8.627c-1.606 0-2.914-1.306-2.914-2.91V57.277h11.541V71.936zM23.951 55.369H12.41V41.182h11.541V55.369zM23.951 39.276H12.41V25.545h11.541V39.276z" fill="#f5f5f5" data-fill-palette-color="quaternary"></path><path d="M56.506 87.619c-13.554 0-24.579-11.026-24.579-24.581 0-13.554 11.025-24.577 24.579-24.577 13.551 0 24.578 11.023 24.578 24.577C81.084 76.593 70.057 87.619 56.506 87.619zM56.506 44.121c-10.434 0-18.919 8.484-18.919 18.917s8.485 18.92 18.919 18.92c10.43 0 18.918-8.487 18.918-18.92S66.936 44.121 56.506 44.121z" fill="#f5f5f5" data-fill-palette-color="quaternary"></path><path d="M59.689 71.146c-0.984 0-1.938-0.139-2.848-0.386-0.951 0.748-2.148 1.202-3.455 1.202-3.088 0-5.598-2.512-5.598-5.597 0-3.091 2.51-5.601 5.598-5.601 2.281 0 4.244 1.375 5.115 3.336 0.377 0.121 0.771 0.187 1.188 0.187 0.91 0 1.744-0.313 2.416-0.833-1.219-3.646-4.666-6.284-8.719-6.284-5.068 0-9.192 4.127-9.192 9.195 0 5.065 4.124 9.188 9.192 9.188 3.367 0 6.32-1.824 7.922-4.535C60.779 71.102 60.238 71.146 59.689 71.146z" fill="#f5f5f5" data-fill-palette-color="quaternary"></path><path d="M59.689 51.133c-3.369 0-6.32 1.82-7.92 4.532 0.525-0.078 1.064-0.124 1.617-0.124 0.984 0 1.941 0.137 2.852 0.385 0.951-0.749 2.146-1.199 3.451-1.199 3.086 0 5.598 2.514 5.598 5.6s-2.512 5.598-5.598 5.598c-2.281 0-4.246-1.376-5.117-3.336-0.373-0.121-0.771-0.186-1.186-0.186-0.912 0-1.746 0.313-2.416 0.832 1.221 3.646 4.662 6.281 8.719 6.281 5.064 0 9.189-4.123 9.189-9.189C68.881 55.255 64.756 51.133 59.689 51.133z" fill="#f5f5f5" data-fill-palette-color="quaternary"></path></svg></g></svg></g><g></g></svg></g></svg></g></svg></g><defs></defs></svg><rect width="333.90454557049503" height="333.90454557049503" fill="none" stroke="none" visibility="hidden"></rect></g></svg></g></svg>