<svg xmlns="http://www.w3.org/2000/svg" version="1.1" xmlns:xlink="http://www.w3.org/1999/xlink" xmlns:svgjs="http://svgjs.dev/svgjs" width="1500" height="1687" viewBox="0 0 1500 1687"><g transform="matrix(1,0,0,1,0.000011718749760802893,0)"><svg viewBox="0 0 320 360" data-background-color="#b0bca7" preserveAspectRatio="xMidYMid meet" height="1687" width="1500" xmlns="http://www.w3.org/2000/svg" xmlns:xlink="http://www.w3.org/1999/xlink"><g id="tight-bounds" transform="matrix(1,0,0,1,0.0000025000000505315256,0)"><svg viewBox="0 0 320 360" height="360" width="320"><g><svg></svg></g><g><svg viewBox="0 0 320 360" height="360" width="320"><g><path transform="translate(-19.44751,3.1739) scale(3.53591,3.53591)" d="M67.6 10.7c0.2 0 1.8 0.8 2.7 1.1-0.3 0.1-1-0.2-1.8-0.5 0.2 0 0.6 0.1 1 0.3-0.2-0.2-1.7-0.7-1.9-0.9M52.7 7.6c0.3-0.1 3.8 0.4 5.4 0.5 0.1-0.1-0.2-0.1-0.6-0.2 0.5-0.1 1.5 0.2 2.2 0.3-2.1 0.1-4.4-0.5-6.4-0.3-0.7 0-0.2-0.2-0.6-0.3M49.8 7.6c1.8 0 3.2 0 0.6 0.2-0.3-0.1-0.7-0.1-0.6-0.2M78.1 15.9c0.2 0 1 0.9 1.4 1.2-0.1 0.1-0.9-0.7-1.3-1 0.1 0.1 0 0-0.1-0.2M76.1 14.6c-0.8-0.7-1.1-0.7-1.2-1.1 0.7 0.4 1.2 0.8 1.2 1.1M63.2 8.3c0.1-0.1 0.3 0.1 0.8 0.2-0.6-0.1-0.5 0-0.3 0.2-0.7-0.1-0.9-0.2-0.7-0.4 0.4 0.2 0.5 0.1 0.2 0M34.8 9.5c0-0.1 0.4-0.3 0.7-0.4-0.3 0.2-0.2 0.3 0.3 0.1 0 0.1-0.6 0.3-1 0.5 0.2-0.1 0.4-0.4 0-0.2M65.2 7.3c-0.3 0.1-1.4-0.5-2.5-0.7-0.6-0.2 2.4 0.5 2.5 0.7M6.2 56.7c0.6 2.5 0.2 2.4 0 0M6.3 41.7c0.1-0.4 0.2-1.5 0.3-1.4-0.3 2.4-0.8 3.5-0.9 5.3 0.3-1.6-0.1 0.9-0.2 1.5 0.1 0.8 0.1-0.5 0.3-0.3 0.2 0.3-0.4 4.5-0.2 2.2-0.2 2.1 0 4.4 0.4 5-0.5 3.2 2 10.4 2.5 11.9 0.1 0.1 0-0.5 0.2-0.1 0.2 1.3 1.1 2.2 1.4 3.6 0.3 0.4 1.5 2.6 1.7 3.1 0.4 0.8 0.6 0.7 1 1.5 1.2 2.3 3.1 4.5 4.9 6.6 5.8 6.8 14.7 12.4 24.6 14.4 9.9 2.1 20.3 0.6 28.4-3.3 0.5-0.3 0.4-0.4 1-0.6 2.8-0.9 6.2-3.8 8.1-4.9 0.9-1 3.3-2.7 3.6-3.7 1.7-1.4 3.4-3.7 4.3-5.2 0.5-0.8 0.9-0.8 1.1-1.3-0.1 0 1.6-2.1 2.1-3.3-0.2 0-0.5 0.6-0.5 0 3.6-6.9 5.6-16.2 4.5-22.6 0.2 7.9-1.8 16.7-5.6 22.3-1.7 3.6-5.2 7.5-8.4 10.3-0.5 0.5-1 1.1-1.6 1.5-1.9 1.6-4 2.9-6.2 4.1-5.2 2.9-11 5.4-17.8 5.5 11.7-1 22.2-6.9 28-14.1-4.4 4.3-6.3 6-11.2 8.5-0.4 0.7-3.7 2.1-5.9 2.7 1.3-0.6 4-1.6 4.9-2.4-7.3 3.5-15.4 5.5-23 4.4 2.9 0 7 0.1 10.9-0.6 0.6-0.2 0.9-0.4 1.6-0.5 7.6-1.7 14.9-5.4 20.1-10.6-3 2.7-7.5 5.9-10.4 6.9 2.7-1.5 7.6-4.4 9.2-6.6-3.2 3.2-9.2 6.4-13 7.8-0.6 0.1 0.4-0.4-0.6 0-1.2 0.3-0.7 0.3-1 0.5-4.6 1.3-9.9 2.4-14.3 2-0.8-0.1-1.1-0.3-1.8-0.3-0.8-0.1-1.5-0.1-2.4-0.1-3.5-0.4-7.3-1.8-10.1-3-1.5-0.7-3-1.2-4.5-2.1-1.2-0.7-2.2-1.5-3.2-2.3-3.8-2.8-7-5.6-10-9.6-5.4-7.5-8.2-16.9-7.8-26.2 0.4-9.3 4.1-18.4 10-25.1-0.3 0.3 0.4-0.7 1-1.3 0 0.2-0.1 0.5 0.6-0.2 0.6-0.7-0.2-0.2 0.1-0.6 6.2-6.8 17-12.3 28.1-12.5 0.4-0.3 1.1-0.7 1.9-0.5 0 0.1-0.5 0.1-0.5 0.1 1.1-0.1 2.1-0.1 2.6 0.1 0.1-0.1-0.4-0.2 0-0.2 0.7 0.2 0.9 0 1.3 0.2-0.3 0-0.6 0-0.8 0.1 2.5 0 4.1 0.6 6.6 0.8-1.3-0.3-1.6-0.3-2.6-0.6 1.1 0.2 1.6 0.4 2.1 0.3-0.2 0-0.1-0.3 0.1-0.2 2 0.5 2.2 0.7 4.3 1.4 0.2-0.2-0.9-0.3-1.2-0.6 2 0.7 3.8 1.2 5 2-0.4-0.3-1.6-0.7-2.5-1.1-0.1 0.1 0.3 0.2 0.4 0.4-1-0.5-2.4-1-3.8-1.2 1.2 0.3 2 0.7 2.5 0.9-1.1-0.2-2.5-0.9-4.1-1.2 2.6 0.8 7.5 2.6 10.5 4.2-1.1-0.7-2.4-1.2-3.1-1.6 0.6 0.1 1.3 0.5 1.3 0.3 0.7 0.3 1.6 1 2.1 1.1-0.9-0.6-2.7-1.5-3.3-1.8 7.5 3.4 14.2 9.1 18.5 16.4 0.4 0.7 1 2.3 1.5 2.5-0.1-0.5-0.5-0.8-0.9-1.6 0.2 0 0.2-0.3 0-0.6-0.4-0.5 0 0.4-0.4-0.1-1.8-3.3-4-6.2-7.4-9.4 1.9 1.8 0.5 0.5 0.1-0.1 2.6 2.3 5.6 6.2 6.9 8.2-0.2-0.3-0.3-0.5-0.2-0.5 2.4 4.1 3.9 7.8 5.4 13.1 0.1 0.1 0-0.4 0.2-0.1 1 4.2 1.3 7.7 1.2 10.9 0.8-5.4-1-13.8-4.2-20.4-0.4-0.8-0.4-0.2-0.8-1.1 0-0.3-0.3-0.9-0.5-1.3-4-6.6-8.9-11.3-14.7-15 0.4 0.2 1.2 0.8 1.2 0.7-10.8-7.1-23.3-8.1-33.6-5.9-0.7 0.3-1 0.6-1.8 1 1.5-0.5 2.4-0.6 3.8-0.9 0.3-0.3-1.3 0.1-0.6-0.2 0.1 0.1 1.4-0.2 1.7-0.1 0 0.1-0.4 0.2-0.5 0.3 3.3-0.7 6.7-0.8 9.6-0.6-1.7 0.1-4.8-0.2-5.8 0.3 1-0.1 2.4-0.2 3.3-0.1-1.2 0-3.4 0.1-4.4 0.2-0.1-0.1 1.6-0.3 0.5-0.3-0.5 0.1-1.3 0.1-1.6 0.4-8.6 0.8-17 5.3-22.9 10.6-1.2 1-2.6 2.1-3.5 3.2-2.2 2.5-3.6 5-5.2 7.2 1-2.1 3.2-5.3 5.8-8 2.6-2.7 5.4-5 6.9-6.2 0 0.4 2.4-1.5 3.3-2.1-0.6 0.5 0.4-0.2 0.6-0.1 3.2-1.9 5.8-2.6 8.7-3.7-0.7 0.2-1.3 0.4-1.4 0.3 0.7-0.2 1.1-0.4 1-0.5-2.8 0.8-7.2 2.7-10.7 4.8 6.3-4.3 14.3-6.9 22.2-7 7.9-0.2 15.6 1.8 21.7 5 4.1 1.8 8 5.1 11.1 8.3 0.9 0.8 0.2-0.2 1.5 1.2-0.4-0.2-0.7-0.4-0.2 0.2 0.8 0.9-0.2-0.7 1.1 0.9-0.1 0-0.5-0.5-0.5-0.3 3.5 3.1 6.2 8.7 7.8 12.4-0.4-1.5-1.4-3.6-2.2-5.1 2.4 4.4 3.2 7 4.2 10.9 0.4 0.3-0.2-1.4 0.2-0.6 0.1 0.6 0.2 2.5 0.6 2.8-0.3-1.9-0.8-4.2-1.2-4.6 0.3 0.2-0.5-2.3-1-2.9-0.2-1.6-1.6-4.4-2.8-6.5-4.3-8.4-12-15.3-20.6-19.1 0-0.2-0.5-0.4-0.7-0.6-8.5-3.6-18.7-4.6-28.5-2.3-9.9 2.4-19.2 8.1-25.8 16.3 0.3-1 2.8-2.9 2.9-3.7-2.9 3.1-6 7.2-8.1 11.6-2.2 4.4-3.4 8.9-3.9 12.2" fill="#f5f5f5" fill-rule="nonzero" stroke="none" stroke-width="1" stroke-linecap="butt" stroke-linejoin="miter" stroke-miterlimit="10" stroke-dasharray="" stroke-dashoffset="0" font-family="none" font-weight="none" font-size="none" text-anchor="none" style="mix-blend-mode: normal" data-fill-palette-color="tertiary"></path></g><g transform="matrix(1,0,0,1,48,94.46711800486757)"><svg viewBox="0 0 224 171.06576399026486" height="171.06576399026486" width="224"><g><svg viewBox="0 0 224 171.06576399026486" height="171.06576399026486" width="224"><g><svg viewBox="0 0 224 171.06576399026486" height="171.06576399026486" width="224"><g transform="matrix(1,0,0,1,0,73.7692715063708)"><svg viewBox="0 0 224 97.29649248389406" height="97.29649248389406" width="224"><g id="textblocktransform"><svg viewBox="0 0 224 97.29649248389406" height="97.29649248389406" width="224" id="textblock"><g><svg viewBox="0 0 224 97.29649248389406" height="97.29649248389406" width="224"><g transform="matrix(1,0,0,1,0,0)"><svg width="224" viewBox="1.63 -35.15 180.62 76.75" height="97.29649248389406" data-palette-color="#f5f5f5"><svg></svg><svg></svg><g class="wordmark-text-0" data-fill-palette-color="primary" id="text-0"><path d="M25.13 0h-20.4v-32.15h20.4v4.6h-15.08v9.12h14.18v4.6h-14.18v9.18h15.08zM38.85 0l-9.2-24.15h6.13l6.3 19.6h-0.48l6.3-19.6h6.1l-9.17 24.15zM68.3 0.68v0c-2.067 0-3.947-0.537-5.64-1.61-1.687-1.067-3.037-2.557-4.05-4.47-1.007-1.92-1.51-4.147-1.51-6.68v0c0-2.647 0.5-4.923 1.5-6.83 1-1.913 2.347-3.377 4.04-4.39 1.693-1.02 3.58-1.53 5.66-1.53v0c1.9 0 3.537 0.383 4.91 1.15 1.38 0.767 2.487 1.8 3.32 3.1 0.833 1.3 1.403 2.773 1.71 4.42 0.307 1.64 0.343 3.333 0.11 5.08v0h-16.97v-2.97h13.25l-1.15 0.75c0.047-0.853 0.003-1.703-0.13-2.55-0.133-0.853-0.387-1.637-0.76-2.35-0.373-0.72-0.903-1.297-1.59-1.73-0.68-0.433-1.553-0.65-2.62-0.65v0c-1.287 0-2.377 0.33-3.27 0.99-0.887 0.66-1.56 1.54-2.02 2.64-0.46 1.1-0.69 2.323-0.69 3.67v0 2.15c0 1.453 0.217 2.743 0.65 3.87 0.433 1.12 1.087 2.007 1.96 2.66 0.88 0.647 1.977 0.97 3.29 0.97v0c1.267 0 2.32-0.3 3.16-0.9 0.847-0.6 1.377-1.49 1.59-2.67v0h5.43c-0.253 1.567-0.837 2.94-1.75 4.12-0.92 1.187-2.097 2.11-3.53 2.77-1.433 0.66-3.067 0.99-4.9 0.99zM107.8 0h-5.3v-14.15c0-1.947-0.467-3.417-1.4-4.41-0.933-0.993-2.173-1.49-3.72-1.49v0c-1.253 0-2.353 0.347-3.3 1.04-0.953 0.687-1.693 1.707-2.22 3.06-0.52 1.347-0.78 3.003-0.78 4.97v0h-1.83c0-3.047 0.383-5.597 1.15-7.65 0.767-2.047 1.863-3.59 3.29-4.63 1.427-1.047 3.123-1.57 5.09-1.57v0c1.967 0 3.62 0.443 4.96 1.33 1.34 0.88 2.353 2.12 3.04 3.72 0.68 1.6 1.02 3.477 1.02 5.63v0zM91.08 0h-5.33v-24.15h4.63l0.7 5zM124.58 0.68v0c-1.4 0-2.673-0.263-3.82-0.79-1.14-0.527-2.05-1.327-2.73-2.4-0.687-1.08-1.03-2.437-1.03-4.07v0-24.07h5.33v23.9c0 2.133 1.007 3.2 3.02 3.2v0c0.6 0 1.2-0.067 1.8-0.2 0.6-0.133 1.283-0.343 2.05-0.63v0l0.78 3.75c-0.92 0.367-1.813 0.677-2.68 0.93-0.867 0.253-1.773 0.38-2.72 0.38zM129.2-20.6h-15.72v-3.55h15.72zM144.98 0.68v0c-2.32 0-4.3-0.327-5.94-0.98-1.64-0.653-2.893-1.573-3.76-2.76-0.867-1.193-1.317-2.617-1.35-4.27v0h4.95c0.067 1.3 0.583 2.257 1.55 2.87 0.967 0.607 2.283 0.91 3.95 0.91v0c0.913 0 1.73-0.137 2.45-0.41 0.713-0.28 1.273-0.657 1.68-1.13 0.413-0.473 0.62-1.003 0.62-1.59v0c0-0.767-0.277-1.363-0.83-1.79-0.547-0.44-1.42-0.833-2.62-1.18v0l-5.1-1.78c-1.933-0.667-3.417-1.557-4.45-2.67-1.033-1.12-1.55-2.453-1.55-4v0c0-2.02 0.903-3.647 2.71-4.88 1.807-1.233 4.22-1.85 7.24-1.85v0c3.067 0 5.433 0.66 7.1 1.98 1.667 1.313 2.523 2.97 2.57 4.97v0h-5.07c-0.087-0.867-0.51-1.543-1.27-2.03-0.753-0.493-1.863-0.74-3.33-0.74v0c-1.353 0-2.413 0.283-3.18 0.85-0.767 0.567-1.15 1.227-1.15 1.98v0c0 1.293 1.11 2.257 3.33 2.89v0l5.45 2c1.933 0.633 3.42 1.45 4.46 2.45 1.04 1.007 1.56 2.273 1.56 3.8v0c0 1.253-0.417 2.443-1.25 3.57-0.833 1.12-2.003 2.03-3.51 2.73-1.507 0.707-3.26 1.06-5.26 1.06z" fill="#f5f5f5" fill-rule="nonzero" stroke="none" stroke-width="1" stroke-linecap="butt" stroke-linejoin="miter" stroke-miterlimit="10" stroke-dasharray="" stroke-dashoffset="0" font-family="none" font-weight="none" font-size="none" text-anchor="none" style="mix-blend-mode: normal" data-fill-palette-color="primary" opacity="1"></path><path transform="translate(0,37.92)" d="M10 0h-5.37v-32.15h11.07c3.587 0 6.37 0.89 8.35 2.67 1.987 1.787 2.98 4.287 2.98 7.5v0c0 3.167-0.993 5.643-2.98 7.43-1.98 1.78-4.763 2.67-8.35 2.67v0h-5.7zM10-27.55v11.02h5.7c1.913 0 3.367-0.507 4.36-1.52 0.993-1.02 1.49-2.33 1.49-3.93v0c0-1.647-0.497-2.987-1.49-4.02-0.993-1.033-2.447-1.55-4.36-1.55v0zM38.75 0h-5.32v-34.25h5.32zM68.2 0h-4.65l-0.67-5.7v-9.9c0-1.833-0.38-3.177-1.14-4.03-0.76-0.847-1.99-1.27-3.69-1.27v0c-0.967 0-1.82 0.14-2.56 0.42-0.74 0.287-1.317 0.71-1.73 1.27-0.407 0.553-0.61 1.24-0.61 2.06v0h-5.85c0-1.82 0.437-3.29 1.31-4.41 0.88-1.127 2.123-1.953 3.73-2.48 1.607-0.527 3.51-0.79 5.71-0.79v0c2.033 0 3.81 0.33 5.33 0.99 1.513 0.66 2.697 1.68 3.55 3.06 0.847 1.387 1.27 3.17 1.27 5.35v0zM55.55 0.68v0c-2.047 0-3.75-0.36-5.11-1.08-1.36-0.72-2.38-1.663-3.06-2.83-0.687-1.167-1.03-2.417-1.03-3.75v0c0-1.567 0.403-2.867 1.21-3.9 0.813-1.033 1.947-1.803 3.4-2.31 1.46-0.507 3.157-0.76 5.09-0.76v0c1.32 0 2.573 0.107 3.76 0.32 1.193 0.22 2.383 0.503 3.57 0.85v0 3.18c-0.953-0.333-1.997-0.593-3.13-0.78-1.133-0.18-2.183-0.27-3.15-0.27v0c-1.467 0-2.68 0.28-3.64 0.84-0.953 0.56-1.43 1.503-1.43 2.83v0c0 0.967 0.383 1.8 1.15 2.5 0.767 0.7 1.983 1.05 3.65 1.05v0c1.247 0 2.32-0.273 3.22-0.82 0.9-0.553 1.597-1.247 2.09-2.08 0.493-0.833 0.74-1.667 0.74-2.5v0h1.27c0 1.7-0.33 3.273-0.99 4.72-0.653 1.44-1.623 2.597-2.91 3.47-1.28 0.88-2.847 1.32-4.7 1.32zM99.1 0h-5.3v-14.15c0-1.947-0.467-3.417-1.4-4.41-0.933-0.993-2.173-1.49-3.72-1.49v0c-1.253 0-2.353 0.347-3.3 1.04-0.953 0.687-1.693 1.707-2.22 3.06-0.52 1.347-0.78 3.003-0.78 4.97v0h-1.83c0-3.047 0.383-5.597 1.15-7.65 0.767-2.047 1.863-3.59 3.29-4.63 1.427-1.047 3.123-1.57 5.09-1.57v0c1.967 0 3.62 0.443 4.96 1.33 1.34 0.88 2.353 2.12 3.04 3.72 0.68 1.6 1.02 3.477 1.02 5.63v0zM82.38 0h-5.33v-24.15h4.63l0.7 5zM129.98 0h-5.3v-14.15c0-1.947-0.467-3.417-1.4-4.41-0.933-0.993-2.177-1.49-3.73-1.49v0c-1.247 0-2.347 0.347-3.3 1.04-0.947 0.687-1.683 1.707-2.21 3.06-0.527 1.347-0.79 3.003-0.79 4.97v0h-1.82c0-3.047 0.383-5.597 1.15-7.65 0.767-2.047 1.86-3.59 3.28-4.63 1.427-1.047 3.123-1.57 5.09-1.57v0c1.967 0 3.62 0.443 4.96 1.33 1.347 0.88 2.36 2.12 3.04 3.72 0.687 1.6 1.03 3.477 1.03 5.63v0zM113.25 0h-5.32v-24.15h4.62l0.7 5zM147.63 0.68v0c-2.067 0-3.947-0.537-5.64-1.61-1.693-1.067-3.043-2.557-4.05-4.47-1.007-1.92-1.51-4.147-1.51-6.68v0c0-2.647 0.5-4.923 1.5-6.83 1-1.913 2.343-3.377 4.03-4.39 1.693-1.02 3.583-1.53 5.67-1.53v0c1.893 0 3.53 0.383 4.91 1.15 1.373 0.767 2.477 1.8 3.31 3.1 0.833 1.3 1.403 2.773 1.71 4.42 0.313 1.64 0.353 3.333 0.12 5.08v0h-16.98v-2.97h13.25l-1.15 0.75c0.053-0.853 0.013-1.703-0.12-2.55-0.14-0.853-0.397-1.637-0.77-2.35-0.373-0.72-0.9-1.297-1.58-1.73-0.687-0.433-1.563-0.65-2.63-0.65v0c-1.28 0-2.367 0.33-3.26 0.99-0.893 0.66-1.57 1.54-2.03 2.64-0.46 1.1-0.69 2.323-0.69 3.67v0 2.15c0 1.453 0.22 2.743 0.66 3.87 0.433 1.12 1.087 2.007 1.96 2.66 0.873 0.647 1.97 0.97 3.29 0.97v0c1.267 0 2.32-0.3 3.16-0.9 0.84-0.6 1.37-1.49 1.59-2.67v0h5.42c-0.247 1.567-0.83 2.94-1.75 4.12-0.913 1.187-2.087 2.11-3.52 2.77-1.433 0.66-3.067 0.99-4.9 0.99zM170.4 0h-5.32v-24.23h5.32zM170.4-10.7h-1.37c0-3.133 0.337-5.73 1.01-7.79 0.673-2.06 1.603-3.593 2.79-4.6 1.18-1.007 2.53-1.51 4.05-1.51v0c0.447 0 0.863 0.03 1.25 0.09 0.38 0.053 0.753 0.14 1.12 0.26v0l-0.12 5.3c-0.453-0.12-0.937-0.217-1.45-0.29-0.52-0.073-0.98-0.11-1.38-0.11v0c-1.333 0-2.437 0.337-3.31 1.01-0.873 0.68-1.523 1.663-1.95 2.95-0.427 1.293-0.64 2.857-0.64 4.69z" fill="#f5f5f5" fill-rule="nonzero" stroke="none" stroke-width="1" stroke-linecap="butt" stroke-linejoin="miter" stroke-miterlimit="10" stroke-dasharray="" stroke-dashoffset="0" font-family="none" font-weight="none" font-size="none" text-anchor="none" style="mix-blend-mode: normal" data-fill-palette-color="primary" opacity="1"></path></g></svg></g></svg></g></svg></g></svg></g><g transform="matrix(1,0,0,1,80.64246984354456,0)"><svg viewBox="0 0 62.71506031291087 67.2318763063708" height="67.2318763063708" width="62.71506031291087"><g><svg xmlns="http://www.w3.org/2000/svg" xmlns:xlink="http://www.w3.org/1999/xlink" version="1.1" x="0" y="0" viewBox="8.179 5.167 83.642 89.666" enable-background="new 0 0 100 100" xml:space="preserve" height="67.2318763063708" width="62.71506031291087" class="icon-icon-0" data-fill-palette-color="accent" id="icon-0"><path d="M35.356 21.357c0 1.812-1.468 3.281-3.279 3.281l0 0c-1.812 0-3.279-1.469-3.279-3.281V8.447c0-1.812 1.468-3.28 3.279-3.28l0 0c1.812 0 3.279 1.468 3.279 3.28V21.357z" fill="#f5f5f5" data-fill-palette-color="accent"></path><path d="M81.983 14.93h-8.989v6.427c0 2.786-2.265 5.052-5.05 5.052s-5.05-2.266-5.05-5.052V14.93H37.128v6.427c0 2.786-2.266 5.052-5.051 5.052-2.784 0-5.05-2.266-5.05-5.052V14.93h-8.989c-5.434 0-9.838 4.405-9.838 9.838v7.378h83.621v-7.378C91.821 19.335 87.417 14.93 81.983 14.93z" fill="#f5f5f5" data-fill-palette-color="accent"></path><path d="M71.224 21.357c0 1.812-1.468 3.281-3.279 3.281l0 0c-1.812 0-3.279-1.469-3.279-3.281V8.447c0-1.812 1.468-3.28 3.279-3.28l0 0c1.812 0 3.279 1.468 3.279 3.28V21.357z" fill="#f5f5f5" data-fill-palette-color="accent"></path><path d="M8.2 34.884v38.021H8.179v2.217H8.2v9.873c0 5.434 4.404 9.838 9.838 9.838h63.945c5.434 0 9.838-4.404 9.838-9.838V34.884H8.2zM89.362 54.279H71.678V37.344h17.685V54.279zM28.907 57.402v15.503H28.49C25.759 68.075 25.83 61.864 28.907 57.402zM51.664 72.905H51.4V58.307C53.735 62.682 53.92 68.407 51.664 72.905zM49.184 56.496v16.409H31.123V56.496H49.184zM31.99 54.279c1.739-1.228 3.894-2.102 6.485-2.452 3.985-0.54 7.217 0.503 9.638 2.452H31.99zM49.184 53.506c-2.22-1.516-4.812-2.543-7.51-2.909-3.864-0.523-7.549 0.601-10.552 2.739V37.344h18.062V53.506zM51.4 37.344h18.061v16.936H51.4V37.344zM38.021 79.875c-2.803-0.616-5.106-1.897-6.898-3.586v-1.167h18.062v1.228c-1.934 1.904-4.572 3.26-7.965 3.675-1.024 0.125-1.659 1.393-0.253 1.221 3.104-0.38 5.901-1.468 8.218-3.128v14.257H31.123V78.617c1.715 1.142 3.641 1.986 5.669 2.432C37.496 81.204 39.204 80.135 38.021 79.875zM51.4 76.194c0.327-0.343 0.64-0.699 0.935-1.072h17.126v17.252H51.4V76.194zM53.8 72.905c0.931-1.709 1.58-3.632 1.869-5.748 0.562-4.112-0.772-7.798-3.171-10.661h16.963v16.409H53.8zM71.678 56.496h17.685v16.409H71.678V56.496zM28.907 37.344v16.936H10.66V37.344H28.907zM10.66 56.496h17.113c-1.357 1.662-2.424 3.568-3.084 5.611-1.24 3.84-0.645 7.616 1.114 10.798H10.66V56.496zM10.66 84.995v-9.873h16.644c0.491 0.612 1.027 1.188 1.604 1.729v15.523H18.038C13.97 92.374 10.66 89.063 10.66 84.995zM81.983 92.374H71.678V75.122h17.685v9.873C89.362 89.063 86.052 92.374 81.983 92.374z" fill="#f5f5f5" data-fill-palette-color="accent"></path></svg></g></svg></g><g></g></svg></g></svg></g></svg></g></svg></g><defs></defs></svg><rect width="320" height="360" fill="none" stroke="none" visibility="hidden"></rect></g></svg></g></svg>